<?xml version="1.0" encoding="iso-8859-1"?>
<!-- Generator: Adobe Illustrator 19.0.0, SVG Export Plug-In . SVG Version: 6.00 Build 0)  -->
<svg version="1.1" id="Layer_1" xmlns="http://www.w3.org/2000/svg" xmlns:xlink="http://www.w3.org/1999/xlink" x="0px" y="0px"
	 viewBox="0 0 512 512" style="enable-background:new 0 0 512 512;" xml:space="preserve">
<path style="fill:#FF9269;" d="M106.216,109.791c0-14.009-11.362-25.371-25.371-25.371s-25.371,11.362-25.371,25.371
	c0,0,0.033,31.373,0.033,31.374c0,0.065,0.109,129.738,0.109,129.738h50.601L106.216,109.791z"/>
<polygon style="fill:#FFB082;" points="234.213,386.211 234.213,503.83 201.532,503.786 168.851,327.037 "/>
<path style="fill:#FFCD9C;" d="M201.532,359.718v144.068l-69.719-0.098v-30.785c0-5.795-2.32-14.663-5.164-19.707L25.916,290.598
	c-2.832-5.044-5.164-13.911-5.164-19.696l-0.142-161.117c0-14.009,11.362-25.371,25.371-25.371s25.371,11.362,25.371,25.371v144.406
	L201.532,359.718z"/>
<path style="fill:#FF9269;" d="M211.881,332.299l-29.391-29.042l19.042,159.537c9.979,4.662,21.068,7.255,32.681,7.255v-83.837
	C234.213,368.836,224.169,344.576,211.881,332.299z"/>
<path style="fill:#FFB082;" d="M201.532,353.531v109.263c-26.188-12.179-44.686-38.476-44.686-68.946v-43.662l-78.064-78.064
	c-9.902-9.902-9.902-25.97,0-35.873c9.913-9.913,25.97-9.913,35.884,0l67.824,67.007
	C193.231,316.253,201.532,337.735,201.532,353.531z"/>
<path style="fill:#FF9269;" d="M405.784,109.791c0-14.009,11.362-25.371,25.371-25.371c14.009,0,25.371,11.362,25.371,25.371
	c0,0-0.033,31.373-0.033,31.374c0,0.065-0.109,129.738-0.109,129.738h-50.601V109.791z"/>
<path style="fill:#FFCD9C;" d="M440.644,254.191v-144.4c0-14.009,11.362-25.371,25.371-25.371c14.009,0,25.371,11.362,25.371,25.371
	l-0.142,161.111c0,5.784-2.331,14.652-5.164,19.696l-100.73,162.597c-2.843,5.044-5.164,13.911-5.164,19.707v30.785l-102.4,0.144
	V386.207L440.644,254.191z"/>
<path style="fill:#FFB082;" d="M300.118,332.295l97.221-96.047c9.908-9.908,25.97-9.908,35.878,0s9.908,25.97,0,35.878
	l-78.059,78.059v43.667c0,42.082-35.288,76.196-77.37,76.196v-83.843C277.787,368.837,287.836,344.577,300.118,332.295z"/>
<rect x="307.745" y="29.957" style="fill:#2F5E88;" width="54.468" height="152.511"/>
<rect x="149.787" y="29.957" style="fill:#367596;" width="179.745" height="152.511"/>
<polygon style="fill:#88ACB5;" points="340.426,160.681 318.638,182.468 340.426,204.255 373.106,204.255 373.106,160.681 "/>
<rect x="138.894" y="160.681" style="fill:#A7CBCF;" width="201.532" height="43.574"/>
<polygon style="fill:#88ACB5;" points="340.426,8.17 318.638,29.957 340.426,51.745 373.106,51.745 373.106,8.17 "/>
<rect x="138.894" y="8.17" style="fill:#A7CBCF;" width="201.532" height="43.574"/>
<polygon style="fill:#88ACB5;" points="340.426,84.426 318.638,106.213 340.426,128 373.106,128 373.106,84.426 "/>
<rect x="138.894" y="84.426" style="fill:#A7CBCF;" width="201.532" height="43.574"/>
<path d="M120.438,230.471c-6.335-6.335-14.758-9.824-23.716-9.824c-6.154,0-12.055,1.646-17.2,4.731V109.796
	c0-5.9-1.537-11.446-4.222-16.267c1.768-0.601,3.633-0.932,5.545-0.932c9.484,0,17.199,7.716,17.199,17.2v84.951
	c0,4.512,3.658,8.17,8.17,8.17c4.512,0,8.17-3.658,8.17-8.17v-84.951c0-18.494-15.045-33.54-33.539-33.54
	c-6.227,0-12.226,1.711-17.436,4.891c-5.082-3.101-11.048-4.891-17.424-4.891c-18.494,0-33.54,15.046-33.54,33.547l0.142,161.102
	c0.007,7.218,2.679,17.407,6.216,23.7c0.057,0.101,0.115,0.2,0.178,0.298l100.63,162.43c2.122,3.865,4.036,11.226,4.036,15.564
	v30.789c0,4.512,3.658,8.17,8.17,8.17c4.512,0,8.17-3.658,8.17-8.17v-30.789c0-7.22-2.669-17.412-6.207-23.707
	c-0.057-0.101-0.115-0.2-0.176-0.298L32.97,286.462c-2.122-3.868-4.039-11.231-4.044-15.571l-0.142-161.095
	c0-9.484,7.715-17.2,17.199-17.2s17.199,7.716,17.199,17.2v144.392c0,0.204,0.016,0.403,0.03,0.602
	c0.149,8.387,3.408,16.728,9.793,23.114l78.059,78.059c3.191,3.191,8.364,3.191,11.554,0c3.191-3.191,3.191-8.364,0-11.554
	l-78.058-78.06c-3.248-3.248-5.038-7.568-5.038-12.163c0-4.594,1.79-8.913,5.038-12.162c3.248-3.248,7.568-5.038,12.162-5.038
	s8.913,1.79,12.196,5.073l97.186,96.012c10.808,10.808,19.938,32.851,19.938,48.136V503.83c0,4.512,3.658,8.17,8.17,8.17
	c4.512,0,8.17-3.658,8.17-8.17V386.207c0-19.606-10.86-45.825-24.759-59.724L120.438,230.471z"/>
<path d="M466.017,76.255c-6.376,0-12.342,1.79-17.423,4.891c-5.211-3.18-11.211-4.891-17.436-4.891
	c-18.494,0-33.54,15.046-33.54,33.54v84.951c0,4.512,3.658,8.17,8.17,8.17c4.512,0,8.17-3.658,8.17-8.17v-84.951
	c0-9.484,7.716-17.2,17.199-17.2c1.912,0,3.777,0.331,5.544,0.932c-2.686,4.822-4.222,10.367-4.222,16.267v115.582
	c-5.145-3.084-11.046-4.731-17.2-4.731c-8.959,0-17.382,3.489-23.681,9.789l-97.256,96.082
	c-13.864,13.864-24.724,40.083-24.724,59.689V503.83c0,4.512,3.658,8.17,8.17,8.17s8.17-3.658,8.17-8.17V386.207
	c0-15.284,9.13-37.327,19.903-48.1l97.256-96.082c3.248-3.248,7.568-5.038,12.162-5.038s8.913,1.79,12.162,5.038
	c3.248,3.248,5.038,7.568,5.038,12.162c0,4.595-1.79,8.914-5.038,12.163l-78.059,78.059c-3.191,3.191-3.191,8.364,0,11.554
	c3.191,3.191,8.364,3.191,11.554,0l78.059-78.059c6.386-6.386,9.644-14.727,9.793-23.114c0.014-0.199,0.031-0.4,0.031-0.602V109.796
	c0-9.484,7.716-17.2,17.199-17.2c9.484,0,17.2,7.716,17.2,17.192l-0.142,161.104c-0.003,4.34-1.922,11.703-4.045,15.571
	L378.401,448.892c-0.061,0.098-0.12,0.198-0.176,0.298c-3.539,6.294-6.207,16.485-6.207,23.707v30.789c0,4.512,3.658,8.17,8.17,8.17
	c4.512,0,8.17-3.658,8.17-8.17v-30.789c0-4.339,1.914-11.699,4.035-15.564l100.63-162.43c0.061-0.098,0.12-0.198,0.178-0.298
	c3.538-6.294,6.21-16.483,6.216-23.7l0.142-161.11C499.556,91.302,484.511,76.255,466.017,76.255z"/>
<path d="M138.894,212.426h234.213c4.512,0,8.17-3.658,8.17-8.17v-43.574c0-4.512-3.658-8.17-8.17-8.17h-2.723v-16.34h2.723
	c4.512,0,8.17-3.658,8.17-8.17V84.426c0-4.512-3.658-8.17-8.17-8.17h-2.723v-16.34h2.723c4.512,0,8.17-3.658,8.17-8.17V8.17
	c0-4.512-3.658-8.17-8.17-8.17H138.894c-4.512,0-8.17,3.658-8.17,8.17v43.574c0,4.512,3.658,8.17,8.17,8.17h2.723v16.34h-2.723
	c-4.512,0-8.17,3.658-8.17,8.17V128c0,4.512,3.658,8.17,8.17,8.17h2.723v16.34h-2.723c-4.512,0-8.17,3.658-8.17,8.17v43.574
	C130.723,208.767,134.381,212.426,138.894,212.426z M364.936,196.085H147.064v-27.234h217.872V196.085z M147.064,16.34h217.872
	v27.234H147.064V16.34z M157.957,59.915h196.085v16.34H157.957V59.915z M157.957,136.17h138.894c4.512,0,8.17-3.658,8.17-8.17
	c0-4.512-3.658-8.17-8.17-8.17H147.064V92.596h217.872v27.234h-35.404c-4.512,0-8.17,3.658-8.17,8.17c0,4.512,3.658,8.17,8.17,8.17
	h24.511v16.34H157.957V136.17z"/>
<g>
</g>
<g>
</g>
<g>
</g>
<g>
</g>
<g>
</g>
<g>
</g>
<g>
</g>
<g>
</g>
<g>
</g>
<g>
</g>
<g>
</g>
<g>
</g>
<g>
</g>
<g>
</g>
<g>
</g>
</svg>
