<?xml version="1.0" encoding="iso-8859-1"?>
<!-- Generator: Adobe Illustrator 19.0.0, SVG Export Plug-In . SVG Version: 6.00 Build 0)  -->
<svg version="1.1" id="Layer_1" xmlns="http://www.w3.org/2000/svg" xmlns:xlink="http://www.w3.org/1999/xlink" x="0px" y="0px"
	 viewBox="0 0 511.999 511.999" style="enable-background:new 0 0 511.999 511.999;" xml:space="preserve">
<polygon style="fill:#FF754F;" points="394.883,247.83 255.989,247.83 223.308,389.447 362.202,503.83 394.883,503.83 "/>
<g>
	<polygon style="fill:#FF9269;" points="234.202,356.766 255.989,503.83 362.202,503.83 362.202,356.766 	"/>
	<polygon style="fill:#FF9269;" points="255.989,247.83 117.096,247.83 117.096,356.766 186.542,389.447 255.989,356.766 	"/>
</g>
<rect x="117.096" y="356.766" style="fill:#FFB082;" width="138.894" height="147.064"/>
<g>
	<path style="fill:#C7E7EB;" d="M255.989,8.17c-5.568,0-11.027,0.466-16.34,1.357l77.516,68.276l31.467-3.74
		C335.324,35.708,298.875,8.17,255.989,8.17z"/>
	<path style="fill:#C7E7EB;" d="M373.096,73.532c-5.628,0-11.079,0.733-16.287,2.074l-16.394,128.649h32.681
		c36.098,0,65.362-29.264,65.362-65.362S409.194,73.532,373.096,73.532z"/>
</g>
<path style="fill:#FFFFFF;" d="M405.776,138.894c0-30.437-20.805-56.013-48.968-63.288c-2.374,0.611-4.701,1.337-6.962,2.197
	c-0.38-1.257-0.784-2.504-1.214-3.74c-2.694-0.339-5.433-0.533-8.217-0.533c-8.192,0-16.025,1.521-23.25,4.272
	c-10.648-35.226-40.579-62.078-77.516-68.276c-36.937,6.198-66.868,33.051-77.516,68.276c-7.227-2.751-15.059-4.271-23.251-4.271
	c-36.098,0-65.362,29.264-65.362,65.362s29.264,65.362,65.362,65.362h201.532C376.513,204.255,405.776,174.992,405.776,138.894z"/>
<polygon style="fill:#FFCD9C;" points="212.415,324.085 73.521,324.085 117.096,247.83 255.989,247.83 "/>
<polygon style="fill:#FFB082;" points="299.564,324.085 438.457,324.085 394.883,247.83 255.989,247.83 "/>
<path d="M138.883,212.426c4.513,0,8.17-3.657,8.17-8.17s-3.657-8.17-8.17-8.17c-31.535,0-57.191-25.657-57.191-57.191
	s25.657-57.191,57.192-57.191c6.987,0,13.831,1.257,20.342,3.738c2.119,0.805,4.476,0.697,6.512-0.302
	c2.034-1,3.562-2.799,4.217-4.97c11.36-37.581,46.739-63.828,86.036-63.828s74.676,26.247,86.037,63.828
	c0.656,2.17,2.183,3.97,4.217,4.97c2.037,1,4.392,1.109,6.512,0.302c6.51-2.48,13.353-3.738,20.341-3.738
	c31.535,0,57.191,25.657,57.191,57.191s-25.657,57.191-57.191,57.191H171.564c-4.513,0-8.17,3.657-8.17,8.17s3.657,8.17,8.17,8.17
	h201.532c40.546,0,73.532-32.986,73.532-73.532s-32.986-73.532-73.532-73.532c-6.157,0-12.229,0.759-18.137,2.266
	c-7.136-18.216-19.388-34.436-35.089-46.275C301.343,7.384,279.254,0,255.989,0s-45.353,7.384-63.88,21.354
	c-15.701,11.838-27.953,28.059-35.089,46.275c-5.908-1.508-11.979-2.267-18.137-2.267c-40.546,0-73.532,32.986-73.532,73.532
	S98.338,212.426,138.883,212.426z"/>
<path d="M445.274,319.548l-43.298-75.772c-1.454-2.546-4.161-4.117-7.094-4.117H117.096c-2.931,0-5.64,1.571-7.094,4.117
	l-43.574,76.255c-1.444,2.528-1.435,5.635,0.026,8.154c1.463,2.52,4.154,4.069,7.067,4.069h35.404v171.574
	c0,4.513,3.657,8.17,8.17,8.17h277.787c4.513,0,8.17-3.657,8.17-8.17V332.255h35.426c4.513,0,8.17-3.657,8.17-8.17
	C446.649,322.406,446.144,320.845,445.274,319.548z M121.838,256h120.074l-34.238,59.915H87.6L121.838,256z M386.713,495.66H264.159
	v-57.191c0-4.513-3.657-8.17-8.17-8.17s-8.17,3.657-8.17,8.17v57.191H125.266V332.255h87.149c2.931,0,5.64-1.571,7.094-4.117
	l28.31-49.543v127.192c0,4.513,3.657,8.17,8.17,8.17s8.17-3.657,8.17-8.17V278.596l28.31,49.543
	c1.454,2.546,4.161,4.117,7.094,4.117h87.149V495.66z M304.306,315.915L270.068,256h120.074l34.238,59.915H304.306z"/>
<g>
</g>
<g>
</g>
<g>
</g>
<g>
</g>
<g>
</g>
<g>
</g>
<g>
</g>
<g>
</g>
<g>
</g>
<g>
</g>
<g>
</g>
<g>
</g>
<g>
</g>
<g>
</g>
<g>
</g>
</svg>
