<svg xmlns="http://www.w3.org/2000/svg" xmlns:xlink="http://www.w3.org/1999/xlink" version="1.1" x="0px" y="0px" viewBox="0 0 100 125" enable-background="new 0 0 100 100" xml:space="preserve"><g><path fill="#000000" d="M50,16.665L25,30.833v18.802c0.952,1.49,1.216,3.389,0.556,5.157c0.285,0.068,0.57,0.139,0.847,0.251   c1.435,0.582,2.558,1.688,3.162,3.115c0.506,1.198,0.571,2.496,0.242,3.733L50,73.335l12.659-7.174   c-0.527-0.058-1.052-0.163-1.556-0.368c-1.014-0.412-1.86-1.095-2.489-1.957L52,67.561v-3.008c-1.07,1.043-2.504,1.646-4,1.66   v1.348L29,56.858V35.451l19,10.703v2.464c0.512-0.499,1.11-0.911,1.789-1.197c0.712-0.301,1.461-0.454,2.211-0.46v-0.807l19-10.703   v13.745c0.984-1.258,2.44-2.044,4-2.201V30.833L50,16.665z M50,42.691L31.461,31.987L50,21.284l18.539,10.704L50,42.691z"/><circle cx="20.128" cy="52.764" r="3.8"/><circle cx="16.032" cy="60.418" r="3.8"/><circle cx="24.222" cy="60.418" r="3.8"/><circle cx="37.558" cy="52.764" r="3.8"/><circle cx="52.048" cy="52.764" r="3.8"/><circle cx="47.952" cy="60.418" r="3.8"/><circle cx="63.283" cy="60.418" r="3.8"/><circle cx="71.473" cy="60.418" r="3.8"/><circle cx="75.568" cy="52.764" r="3.8"/><circle cx="83.757" cy="52.764" r="3.8"/><polygon points="98,54.879 80,36.492 80,40.734 96.266,57 80,73.266 80,77.508 98,59.121  "/><polygon points="20,73.266 3.734,57 20,40.734 20,36.492 2,54.879 2,59.121 20,77.508  "/></g><text x="0" y="115" fill="#000000" font-size="5px" font-weight="bold" font-family="'Helvetica Neue', Helvetica, Arial-Unicode, Arial, Sans-serif">Created by Pascal Conil-lacoste</text><text x="0" y="120" fill="#000000" font-size="5px" font-weight="bold" font-family="'Helvetica Neue', Helvetica, Arial-Unicode, Arial, Sans-serif">from the Noun Project</text></svg>