<svg xmlns="http://www.w3.org/2000/svg" xmlns:xlink="http://www.w3.org/1999/xlink" version="1.1" x="0px" y="0px" viewBox="0 0 100 125" enable-background="new 0 0 100 100" xml:space="preserve"><path d="M89.949,57.127c-3.906-3.905-10.237-3.905-14.143,0c-0.393,0.392-0.734,0.814-1.048,1.251l-13.583-6.921  c1.001-3.022,0.52-6.417-1.439-9.072l10.783-10.783c3.914,2.888,9.45,2.572,12.994-0.972c3.905-3.905,3.905-10.236,0-14.143  c-3.906-3.905-10.238-3.905-14.143,0c-3.544,3.544-3.86,9.079-0.973,12.994L57.615,40.265c-2.656-1.959-6.051-2.44-9.072-1.439  l-6.921-13.584c0.437-0.313,0.858-0.655,1.251-1.048c3.905-3.905,3.905-10.237,0.002-14.142c-3.907-3.906-10.238-3.906-14.144,0  c-3.907,3.906-3.907,10.237,0,14.143c2.765,2.765,6.743,3.563,10.22,2.412l6.921,13.585c-0.436,0.313-0.857,0.655-1.249,1.047  c-1.971,1.969-2.943,4.555-2.928,7.135l-15.047,2.384c-0.469-1.478-1.281-2.871-2.454-4.043c-3.905-3.906-10.235-3.905-14.142,0  C6.147,50.62,6.146,56.95,10.051,60.855c3.907,3.906,10.237,3.906,14.143,0c1.97-1.97,2.943-4.556,2.927-7.137l15.047-2.384  c0.469,1.479,1.282,2.872,2.455,4.044c1.172,1.172,2.563,1.985,4.041,2.454L46.281,72.88c-2.58-0.017-5.166,0.957-7.135,2.926  c-3.905,3.905-3.905,10.236,0,14.143c3.906,3.905,10.236,3.905,14.142,0c3.906-3.905,3.906-10.236,0.001-14.142  c-1.173-1.172-2.566-1.986-4.045-2.454l2.383-15.046c2.581,0.017,5.168-0.957,7.138-2.926c0.392-0.392,0.733-0.814,1.048-1.25  l13.582,6.921c-1.15,3.475-0.353,7.454,2.413,10.219c3.905,3.906,10.235,3.905,14.142,0C93.853,67.364,93.853,61.033,89.949,57.127z  "/><text x="0" y="115" fill="#000000" font-size="5px" font-weight="bold" font-family="'Helvetica Neue', Helvetica, Arial-Unicode, Arial, Sans-serif">Created by Tomas Knopp</text><text x="0" y="120" fill="#000000" font-size="5px" font-weight="bold" font-family="'Helvetica Neue', Helvetica, Arial-Unicode, Arial, Sans-serif">from the Noun Project</text></svg>