<svg xmlns="http://www.w3.org/2000/svg" xmlns:xlink="http://www.w3.org/1999/xlink" xml:space="preserve" version="1.1" style="shape-rendering:geometricPrecision;text-rendering:geometricPrecision;image-rendering:optimizeQuality;" viewBox="0 0 8763 10953.75" x="0px" y="0px" fill-rule="evenodd" clip-rule="evenodd"><defs><style type="text/css">
   
    .fil0 {fill:black}
   
  </style></defs><g><path class="fil0" d="M4382 3071c460,0 832,76 832,169 0,93 -372,169 -832,169 -460,0 -833,-76 -833,-169 0,-93 373,-169 833,-169zm798 2066c22,16 34,32 34,49l0 337c0,93 -372,169 -832,169 -460,0 -833,-76 -833,-169l0 -337c0,-17 12,-33 35,-49 102,70 421,121 798,121 376,0 695,-51 798,-121zm0 -570c22,15 34,31 34,48l0 338c0,93 -372,168 -832,168 -460,0 -833,-75 -833,-168l0 -338c0,-17 12,-33 35,-48 102,69 421,120 798,120 376,0 695,-51 798,-120zm0 -571c22,16 34,32 34,49l0 337c0,93 -372,169 -832,169 -460,0 -833,-76 -833,-169l0 -337c0,-17 12,-33 35,-49 102,70 421,121 798,121 376,0 695,-51 798,-121zm0 -570c22,15 34,31 34,48l0 338c0,93 -372,168 -832,168 -460,0 -833,-75 -833,-168l0 -338c0,-17 12,-33 35,-48 102,69 421,120 798,120 376,0 695,-51 798,-120zm-1384 -1414c320,-80 648,-91 963,-42l139 -383c36,-99 146,-149 244,-114l527 192c98,36 149,145 113,243l-140 384c274,165 517,384 711,651l370 -172c95,-44 208,-3 253,92l236 508c45,95 3,208 -91,252l-370 172c80,321 91,649 42,964l383 139c99,36 150,146 114,244l-192 527c-36,98 -145,149 -243,113l-384 -140c-165,274 -384,517 -651,711l172 370c44,95 3,208 -92,253l-508 236c-94,45 -208,3 -252,-91l-172 -370c-321,80 -649,91 -964,42l-139 383c-36,99 -145,150 -244,114l-526 -192c-99,-36 -150,-145 -114,-243l140 -384c-274,-165 -517,-384 -711,-651l-370 172c-95,44 -208,3 -253,-92l-236 -508c-45,-94 -3,-208 91,-252l370 -172c-80,-321 -91,-649 -42,-964l-383 -139c-99,-36 -149,-145 -114,-244l192 -526c36,-99 145,-150 243,-114l384 140c165,-274 384,-517 651,-711l-172 -370c-44,-95 -3,-208 92,-253l508 -236c95,-45 208,-3 252,91l173 370zm-168 753c893,-417 1954,-30 2370,863 417,893 30,1954 -863,2370 -892,417 -1954,30 -2370,-863 -417,-892 -30,-1954 863,-2370zm754 5998c-327,0 -591,-264 -591,-591 0,-279 193,-513 454,-575l0 -656c45,3 91,4 137,4 45,0 91,-1 136,-4l0 656c261,62 454,296 454,575 0,327 -264,591 -590,591zm3098 -7480c231,231 231,605 0,836 -198,197 -500,226 -728,85l-464 464c-61,-68 -125,-132 -193,-193l464 -464c-141,-228 -112,-530 85,-728 231,-230 605,-230 836,0zm1283 3099c0,326 -264,590 -591,590 -279,0 -513,-193 -575,-454l-656 0c3,-45 4,-91 4,-136 0,-46 -1,-92 -4,-137l656 0c62,-261 296,-454 575,-454 327,0 591,264 591,591zm-1283 3098c-231,231 -605,231 -836,0 -197,-198 -226,-500 -85,-728l-464 -464c68,-61 132,-125 193,-193l464 464c228,-141 530,-112 728,85 231,231 231,605 0,836zm-6197 0c-230,-231 -230,-605 0,-836 198,-197 500,-226 728,-85l464 -464c61,68 125,132 193,193l-464 464c141,228 112,530 -85,728 -231,231 -605,231 -836,0zm-1283 -3098c0,-327 265,-591 591,-591 279,0 513,193 575,454l656 0c-3,45 -4,91 -4,137 0,45 1,91 4,136l-656 0c-62,261 -296,454 -575,454 -326,0 -591,-264 -591,-590zm1283 -3099c231,-230 605,-230 836,0 197,198 226,500 85,728l464 464c-68,61 -132,125 -193,193l-464 -464c-228,141 -530,112 -728,-85 -230,-231 -230,-605 0,-836zm3099 -1283c326,0 590,265 590,591 0,279 -193,513 -454,575l0 656c-45,-3 -91,-4 -136,-4 -46,0 -92,1 -137,4l0 -656c-261,-62 -454,-296 -454,-575 0,-326 264,-591 591,-591z"/></g><text x="0" y="8778" fill="#000000" font-size="5px" font-weight="bold" font-family="'Helvetica Neue', Helvetica, Arial-Unicode, Arial, Sans-serif">Created by popcornarts</text><text x="0" y="8783" fill="#000000" font-size="5px" font-weight="bold" font-family="'Helvetica Neue', Helvetica, Arial-Unicode, Arial, Sans-serif">from the Noun Project</text></svg>