<?xml version="1.0" encoding="iso-8859-1"?>
<!-- Generator: Adobe Illustrator 19.0.0, SVG Export Plug-In . SVG Version: 6.00 Build 0)  -->
<svg version="1.1" id="Layer_1" xmlns="http://www.w3.org/2000/svg" xmlns:xlink="http://www.w3.org/1999/xlink" x="0px" y="0px"
	 viewBox="0 0 512 512" style="enable-background:new 0 0 512 512;" xml:space="preserve">
<path style="fill:#C20035;" d="M484.817,301.526c3.004-15.19,19.249-29.455,19.249-45.526s-16.244-30.337-19.249-45.526
	c-3.096-15.651,6.395-35.03,0.424-49.429c-6.075-14.651-26.55-21.616-35.268-34.639c-8.785-13.123-7.438-34.688-18.563-45.814
	c-11.125-11.126-32.692-9.779-45.814-18.563c-13.023-8.719-19.988-29.194-34.639-35.269c-14.401-5.972-33.779,3.519-49.43,0.424
	c-15.19-3.005-29.456-19.25-45.527-19.25L192.529,256L256,504.066c16.071,0,30.337-16.244,45.526-19.249
	c15.651-3.096,35.03,6.395,49.429,0.424c14.651-6.075,21.616-26.55,34.639-35.268c13.123-8.785,34.688-7.438,45.814-18.563
	c11.126-11.126,9.779-32.692,18.563-45.814c8.719-13.023,29.194-19.988,35.269-34.639
	C491.212,336.556,481.721,317.178,484.817,301.526z"/>
<g>
	<path style="fill:#FF0F47;" d="M210.474,27.183c-15.651,3.096-35.03-6.395-49.429-0.424c-14.651,6.075-21.616,26.55-34.639,35.268
		c-13.123,8.785-34.688,7.438-45.814,18.563c-11.126,11.126-9.779,32.692-18.563,45.814c-8.719,13.023-29.194,19.988-35.269,34.639
		c-5.972,14.401,3.519,33.779,0.424,49.43c-3.005,15.19-19.25,29.456-19.25,45.527s16.244,30.337,19.249,45.526
		c3.096,15.651-6.395,35.03-0.424,49.429c6.075,14.651,26.55,21.616,35.268,34.639c8.785,13.123,7.438,34.688,18.563,45.814
		s32.692,9.779,45.814,18.563c13.023,8.719,19.988,29.194,34.639,35.269c14.401,5.972,33.779-3.519,49.43-0.424
		c15.19,3.004,29.455,19.249,45.526,19.249V7.934C239.929,7.934,225.663,24.178,210.474,27.183z"/>
	<path style="fill:#FF0F47;" d="M256,55.008c111.003,0,200.992,89.988,200.992,200.992S367.003,456.992,256,456.992L177.836,256
		L256,55.008z"/>
</g>
<path style="fill:#FF6176;" d="M55.008,256c0,111.003,89.988,200.992,200.992,200.992V55.008
	C144.996,55.008,55.008,144.996,55.008,256z"/>
<circle style="fill:#FFA89E;" cx="256" cy="256" r="169.256"/>
<polygon style="fill:#FF6176;" points="333.223,207.138 256.212,167.913 214.71,207.138 173.202,167.913 131.702,250.785 
	232.463,293.099 333.223,250.785 "/>
<polygon style="fill:#C20035;" points="339.221,167.913 339.221,207.138 319.788,207.138 292.388,187.525 307.708,167.913 "/>
<g>
	<polygon style="fill:#FF0F47;" points="256.212,167.913 214.712,250.785 173.202,167.913 	"/>
	<polygon style="fill:#FF0F47;" points="319.788,207.138 298.155,250.785 256.212,167.913 307.708,167.913 	"/>
	<polygon style="fill:#FF0F47;" points="339.221,167.913 380.298,250.785 344.507,271.942 333.223,250.785 319.788,207.138 	"/>
</g>
<polygon style="fill:#C20035;" points="333.223,250.785 309.209,269.04 298.155,250.785 214.712,250.785 197.951,298.872 
	256,383.365 380.298,250.785 "/>
<g>
	<polygon style="fill:#FF0F47;" points="214.712,250.785 256,383.365 131.702,250.785 	"/>
	<polygon style="fill:#FF0F47;" points="333.223,250.785 256,383.365 298.155,250.785 	"/>
</g>
<path d="M500.85,285.719C506.076,277.013,512,267.147,512,256c0-11.147-5.924-21.013-11.15-29.719
	c-3.696-6.157-7.187-11.972-8.25-17.347c-1.126-5.693-0.106-12.586,0.974-19.885c1.535-10.369,3.123-21.091-1.004-31.043
	c-4.209-10.151-13.013-16.661-21.526-22.955c-5.84-4.319-11.358-8.398-14.479-13.059c-3.169-4.735-4.854-11.442-6.637-18.544
	c-2.565-10.214-5.217-20.775-12.908-28.467c-7.692-7.692-18.254-10.344-28.468-12.909c-7.101-1.784-13.809-3.468-18.543-6.638
	c-4.661-3.12-8.74-8.637-13.059-14.478c-6.294-8.514-12.804-17.317-22.955-21.526c-4.256-1.764-9.037-2.622-14.616-2.622
	c-5.498,0-11.055,0.822-16.427,1.617c-5.079,0.751-9.876,1.462-14.303,1.462c-2.097,0-3.923-0.16-5.581-0.488
	c-5.374-1.063-11.189-4.554-17.345-8.25C277.014,5.924,267.147,0,256,0c-11.147,0-21.014,5.924-29.72,11.15
	c-6.156,3.696-11.971,7.187-17.345,8.25c-1.659,0.328-3.485,0.488-5.581,0.488c-4.428,0-9.226-0.71-14.303-1.462
	c-5.374-0.796-10.93-1.619-16.427-1.619c-5.579,0-10.361,0.858-14.616,2.622c-10.151,4.209-16.66,13.013-22.954,21.525
	c-4.318,5.841-8.397,11.358-13.058,14.479c-4.735,3.169-11.442,4.853-18.544,6.637c-10.214,2.564-20.776,5.217-28.468,12.909
	s-10.344,18.253-12.908,28.468c-1.784,7.101-3.468,13.809-6.637,18.543c-3.12,4.66-8.637,8.74-14.479,13.058
	c-8.514,6.294-17.316,12.804-21.526,22.955c-4.127,9.952-2.54,20.675-1.005,31.044c1.08,7.298,2.1,14.191,0.974,19.885
	c-1.063,5.375-4.554,11.19-8.25,17.346C5.924,234.987,0,244.853,0,256c0,11.147,5.924,21.013,11.15,29.719
	c3.696,6.157,7.187,11.972,8.25,17.347c1.126,5.693,0.106,12.586-0.974,19.885c-1.535,10.369-3.123,21.091,1.004,31.043
	c4.209,10.151,13.013,16.661,21.526,22.955c5.84,4.319,11.358,8.398,14.479,13.059c3.169,4.735,4.854,11.442,6.637,18.544
	c2.565,10.214,5.217,20.775,12.908,28.467c7.692,7.692,18.254,10.344,28.468,12.909c7.101,1.784,13.809,3.468,18.543,6.638
	c4.661,3.12,8.74,8.637,13.059,14.478c6.294,8.514,12.804,17.317,22.955,21.526c4.256,1.766,9.038,2.623,14.617,2.622
	c5.497,0,11.052-0.822,16.425-1.617c5.08-0.751,9.877-1.462,14.304-1.462c2.097,0,3.923,0.16,5.581,0.488
	c5.374,1.063,11.189,4.554,17.345,8.25C234.986,506.076,244.853,512,256,512c11.147,0,21.014-5.924,29.72-11.15
	c6.156-3.696,11.971-7.187,17.345-8.25c1.659-0.328,3.485-0.488,5.581-0.488c4.428,0,9.226,0.71,14.303,1.462
	c5.374,0.796,10.93,1.619,16.427,1.619c5.579,0,10.361-0.858,14.616-2.622c10.151-4.209,16.66-13.013,22.954-21.525
	c4.318-5.841,8.397-11.358,13.058-14.479c4.735-3.169,11.442-4.853,18.544-6.637c10.214-2.564,20.776-5.217,28.468-12.909
	c7.692-7.692,10.344-18.253,12.908-28.468c1.784-7.101,3.468-13.809,6.637-18.543c3.12-4.66,8.637-8.74,14.479-13.058
	c8.514-6.294,17.316-12.804,21.526-22.955c4.127-9.952,2.54-20.675,1.005-31.044c-1.08-7.298-2.1-14.191-0.974-19.885
	C493.663,297.691,497.154,291.876,500.85,285.719z M487.246,277.553c-4.235,7.053-8.612,14.346-10.211,22.435
	c-1.658,8.383-0.386,16.977,0.844,25.288c1.274,8.613,2.479,16.748,0.034,22.643c-2.524,6.087-9.217,11.036-16.303,16.274
	c-6.675,4.935-13.575,10.038-18.23,16.99c-4.702,7.025-6.807,15.403-8.84,23.507c-2.134,8.497-4.149,16.522-8.74,21.113
	c-4.59,4.59-12.616,6.606-21.112,8.739c-8.103,2.035-16.482,4.139-23.507,8.842c-6.952,4.655-12.055,11.556-16.991,18.23
	c-5.238,7.085-10.187,13.777-16.274,16.303c-2.291,0.95-5.085,1.412-8.538,1.412c-4.33,0-9.077-0.703-14.103-1.447
	c-5.425-0.803-11.033-1.633-16.628-1.633c-3.143,0-5.975,0.258-8.661,0.789c-8.089,1.601-15.382,5.978-22.434,10.211
	c-7.612,4.568-14.803,8.885-21.553,8.885s-13.94-4.317-21.553-8.887c-7.052-4.234-14.344-8.611-22.434-10.211
	c-2.685-0.531-5.518-0.789-8.661-0.789c-5.596,0-11.205,0.83-16.628,1.632c-5.026,0.745-9.773,1.447-14.103,1.447
	c-3.454,0-6.246-0.462-8.538-1.412c-6.088-2.524-11.037-9.216-16.276-16.303c-4.934-6.674-10.037-13.575-16.989-18.23
	c-7.025-4.702-15.404-6.807-23.508-8.842c-8.497-2.134-16.522-4.149-21.112-8.739c-4.59-4.59-6.605-12.615-8.739-21.112
	c-2.035-8.103-4.139-16.482-8.842-23.507c-4.653-6.952-11.556-12.055-18.23-16.99c-7.085-5.24-13.779-10.188-16.303-16.274
	c-2.445-5.895-1.24-14.03,0.035-22.642c1.23-8.31,2.503-16.903,0.844-25.288c-1.601-8.089-5.978-15.382-10.211-22.435
	c-4.57-7.612-8.886-14.802-8.886-21.552c0-6.749,4.316-13.939,8.886-21.553c4.235-7.053,8.612-14.346,10.211-22.435
	c1.658-8.383,0.386-16.977-0.844-25.288c-1.274-8.613-2.479-16.748-0.034-22.643c2.524-6.087,9.217-11.036,16.303-16.274
	c6.675-4.935,13.575-10.038,18.23-16.99c4.702-7.025,6.807-15.403,8.84-23.507c2.134-8.497,4.149-16.522,8.74-21.113
	c4.59-4.59,12.616-6.606,21.112-8.739c8.103-2.035,16.482-4.139,23.507-8.842c6.952-4.655,12.055-11.556,16.991-18.23
	c5.238-7.085,10.187-13.777,16.274-16.303c2.291-0.95,5.085-1.412,8.538-1.412c4.33,0,9.077,0.703,14.103,1.447
	c5.425,0.803,11.033,1.633,16.628,1.633c3.143,0,5.975-0.258,8.661-0.789c8.089-1.601,15.382-5.978,22.434-10.211
	c7.612-4.568,14.803-8.885,21.553-8.885s13.94,4.317,21.553,8.887c7.052,4.234,14.344,8.611,22.434,10.211
	c2.685,0.531,5.518,0.789,8.661,0.789c5.596,0,11.205-0.83,16.628-1.632c5.026-0.745,9.772-1.447,14.103-1.447
	c3.454,0,6.246,0.462,8.538,1.412c6.088,2.524,11.037,9.216,16.276,16.303c4.934,6.674,10.037,13.575,16.989,18.23
	c7.025,4.702,15.404,6.807,23.508,8.842c8.497,2.134,16.522,4.149,21.112,8.739c4.59,4.59,6.605,12.615,8.739,21.112
	c2.035,8.103,4.139,16.482,8.842,23.507c4.653,6.952,11.556,12.055,18.23,16.99c7.085,5.24,13.779,10.188,16.303,16.274
	c2.445,5.895,1.24,14.03-0.035,22.642c-1.23,8.31-2.503,16.903-0.844,25.288c1.601,8.089,5.978,15.382,10.211,22.435
	c4.57,7.612,8.886,14.803,8.886,21.552C496.132,262.749,491.816,269.939,487.246,277.553z"/>
<path d="M256,433.19c97.702,0,177.19-79.487,177.19-177.19S353.702,78.81,256,78.81S78.81,158.297,78.81,256
	S158.298,433.19,256,433.19z M256,94.678c88.954,0,161.322,72.369,161.322,161.322S344.954,417.322,256,417.322
	S94.678,344.954,94.678,256S167.046,94.678,256,94.678z"/>
<path d="M255.963,391.298c2.23,0.002,4.324-0.906,5.825-2.506l124.298-132.584c2.265-2.415,2.791-5.983,1.32-8.949l-41.073-82.865
	c-0.02-0.039-0.046-0.074-0.067-0.113c-0.139-0.27-0.291-0.531-0.46-0.784c-0.019-0.029-0.036-0.059-0.056-0.088
	c-0.19-0.276-0.401-0.539-0.627-0.791c-0.042-0.047-0.087-0.09-0.129-0.136c-0.191-0.204-0.396-0.398-0.61-0.582
	c-0.051-0.043-0.1-0.089-0.152-0.131c-0.255-0.207-0.523-0.404-0.808-0.582c-0.031-0.019-0.063-0.034-0.095-0.053
	c-0.188-0.114-0.379-0.225-0.58-0.325c-0.062-0.031-0.126-0.053-0.188-0.081c-0.089-0.041-0.179-0.079-0.269-0.116
	c-0.242-0.102-0.486-0.19-0.731-0.267c-0.068-0.021-0.133-0.045-0.201-0.065c-0.325-0.091-0.653-0.162-0.981-0.209
	c-0.044-0.006-0.09-0.008-0.134-0.015c-0.298-0.038-0.597-0.058-0.895-0.063c-0.041-0.001-0.083-0.008-0.124-0.008H173.206
	c-0.048,0-0.094,0.01-0.142,0.01c-0.279,0.004-0.559,0.024-0.839,0.059c-0.063,0.007-0.127,0.013-0.19,0.021
	c-0.323,0.048-0.644,0.115-0.964,0.205c-0.067,0.019-0.13,0.043-0.197,0.063c-0.245,0.076-0.489,0.164-0.73,0.264
	c-0.093,0.039-0.186,0.079-0.277,0.122c-0.072,0.033-0.144,0.059-0.215,0.094c-0.17,0.086-0.33,0.182-0.491,0.278
	c-0.052,0.031-0.106,0.057-0.158,0.089c-0.284,0.177-0.55,0.369-0.803,0.575c-0.047,0.038-0.091,0.08-0.138,0.12
	c-0.214,0.182-0.416,0.373-0.607,0.575c-0.05,0.052-0.099,0.103-0.148,0.157c-0.225,0.251-0.437,0.51-0.627,0.785
	c-0.198,0.291-0.359,0.569-0.507,0.854c-0.02,0.038-0.045,0.071-0.066,0.11l-41.504,82.865c-1.487,2.972-0.967,6.556,1.305,8.979
	l124.298,132.584C251.703,390.383,253.784,391.289,255.963,391.298z M298.077,233.066l-28.956-57.215h57.315L298.077,233.066z
	 M285.244,242.849h-57.686l28.693-57.288L285.244,242.849z M214.711,233.066l-28.657-57.215h57.313L214.711,233.066z
	 M287.303,258.717l-31.225,98.217l-30.587-98.217H287.303z M274.177,352.377l29.776-93.661h32.843c4.383,0,7.934-3.552,7.934-7.934
	c0-4.382-3.551-7.934-7.934-7.934h-25.858l28.286-57.067l31.52,63.591L274.177,352.377z M173.206,185.634l28.656,57.215h-26.66
	c-4.383,0-7.934,3.552-7.934,7.934c0,4.382,3.551,7.934,7.934,7.934h33.668l29.276,94.006l-96.874-103.332L173.206,185.634z"/>
<path d="M256,47.074C140.798,47.074,47.074,140.798,47.074,256c0,49.619,17.78,97.755,50.065,135.541
	c2.845,3.331,7.855,3.725,11.186,0.878c3.331-2.846,3.725-7.855,0.878-11.186C79.372,346.318,62.942,301.843,62.942,256
	c0-106.453,86.605-193.058,193.058-193.058S449.058,149.547,449.058,256S362.453,449.058,256,449.058
	c-45.843,0-90.318-16.43-125.234-46.262c-3.332-2.848-8.341-2.453-11.186,0.878c-2.846,3.331-2.453,8.339,0.878,11.186
	c37.786,32.286,85.923,50.066,135.541,50.066c115.202,0,208.926-93.723,208.926-208.926S371.202,47.074,256,47.074z"/>
<g>
</g>
<g>
</g>
<g>
</g>
<g>
</g>
<g>
</g>
<g>
</g>
<g>
</g>
<g>
</g>
<g>
</g>
<g>
</g>
<g>
</g>
<g>
</g>
<g>
</g>
<g>
</g>
<g>
</g>
</svg>
