<?xml version="1.0" encoding="iso-8859-1"?>
<!-- Generator: Adobe Illustrator 19.0.0, SVG Export Plug-In . SVG Version: 6.00 Build 0)  -->
<svg version="1.1" id="Layer_1" xmlns="http://www.w3.org/2000/svg" xmlns:xlink="http://www.w3.org/1999/xlink" x="0px" y="0px"
	 viewBox="0 0 512 512" style="enable-background:new 0 0 512 512;" xml:space="preserve">
<polygon style="fill:#C7E7EB;" points="255.999,27.743 59.915,157.029 59.915,211.497 405.786,503.828 452.083,503.828 
	452.083,157.029 "/>
<polygon style="fill:#E5FAFC;" points="255.999,82.211 59.915,211.497 59.915,503.828 106.213,503.828 405.786,242.383 
	405.786,180.971 "/>
<polygon style="fill:#27467A;" points="362.212,242.383 329.531,373.106 362.212,503.828 405.786,503.828 405.786,242.383 "/>
<rect x="106.212" y="242.382" style="fill:#2F5E88;" width="255.999" height="261.446"/>
<polygon style="fill:#FF0F47;" points="255.999,8.171 245.106,47.315 255.999,47.315 485.838,198.859 503.828,171.574 "/>
<polygon style="fill:#FF6176;" points="8.171,171.574 26.159,198.859 255.999,47.315 255.999,8.171 "/>
<rect x="307.743" y="329.53" style="fill:#2F5E88;" width="54.468" height="152.51"/>
<rect x="149.786" y="329.53" style="fill:#367596;" width="179.744" height="152.51"/>
<polygon style="fill:#88ACB5;" points="340.424,460.254 318.637,482.041 340.424,503.828 373.105,503.828 373.105,460.254 "/>
<rect x="138.892" y="460.253" style="fill:#A7CBCF;" width="201.531" height="43.574"/>
<polygon style="fill:#88ACB5;" points="340.424,307.744 318.637,329.531 340.424,351.318 373.105,351.318 373.105,307.744 "/>
<rect x="138.892" y="307.743" style="fill:#A7CBCF;" width="201.531" height="43.574"/>
<polygon style="fill:#88ACB5;" points="340.424,383.999 318.637,405.786 340.424,427.573 373.105,427.573 373.105,383.999 "/>
<rect x="138.892" y="383.998" style="fill:#A7CBCF;" width="201.531" height="43.574"/>
<path d="M373.105,299.574H138.893c-4.512,0-8.17,3.657-8.17,8.17v43.574c0,4.513,3.658,8.17,8.17,8.17h2.723v16.34h-2.723
	c-4.512,0-8.17,3.657-8.17,8.17v43.574c0,4.513,3.658,8.17,8.17,8.17h2.723v16.34h-2.723c-4.512,0-8.17,3.657-8.17,8.17v43.574
	c0,4.513,3.658,8.17,8.17,8.17h234.212c4.513,0,8.17-3.657,8.17-8.17v-43.574c0-4.513-3.657-8.17-8.17-8.17h-2.723v-16.34h2.723
	c4.513,0,8.17-3.657,8.17-8.17v-43.574c0-4.513-3.657-8.17-8.17-8.17h-2.723v-16.34h2.723c4.513,0,8.17-3.657,8.17-8.17v-43.574
	C381.275,303.231,377.617,299.574,373.105,299.574z M147.064,315.914h217.871v27.234H147.064V315.914z M364.935,495.658H147.064
	v-27.234h217.871V495.658z M354.041,452.084H157.957v-16.34H296.85c4.513,0,8.17-3.657,8.17-8.17s-3.657-8.17-8.17-8.17H147.064
	v-27.234h217.871v27.234h-35.404c-4.513,0-8.17,3.657-8.17,8.17s3.657,8.17,8.17,8.17h24.511V452.084z M354.041,375.829H157.957
	v-16.34h196.084V375.829z"/>
<path d="M508.326,164.753L260.497,1.349c-2.729-1.797-6.266-1.797-8.995,0L3.674,164.753c-3.767,2.484-4.807,7.551-2.324,11.318
	l17.99,27.284c1.193,1.809,3.056,3.07,5.178,3.507c2.121,0.435,4.331,0.01,6.141-1.182l21.088-13.905v312.053
	c0,4.513,3.658,8.17,8.17,8.17h46.298c4.512,0,8.17-3.657,8.17-8.17V250.553h283.233v253.275c0,4.513,3.657,8.17,8.17,8.17h46.298
	c4.513,0,8.17-3.657,8.17-8.17V191.776l21.087,13.903c1.345,0.886,2.911,1.349,4.498,1.349c0.548,0,1.099-0.056,1.643-0.167
	c2.123-0.436,3.986-1.697,5.179-3.507l17.99-27.284C513.133,172.304,512.093,167.237,508.326,164.753z M443.913,495.658h-29.957
	V242.383c0-4.513-3.657-8.17-8.17-8.17H106.213c-4.512,0-8.17,3.657-8.17,8.17v253.276H68.085V181.002l187.914-123.9l187.914,123.9
	V495.658z M483.515,187.54L260.497,40.494c-1.365-0.899-2.93-1.349-4.498-1.349c-1.566,0-3.133,0.45-4.497,1.349L28.483,187.54
	l-8.995-13.642l236.51-155.94l236.51,155.94L483.515,187.54z"/>
<g>
</g>
<g>
</g>
<g>
</g>
<g>
</g>
<g>
</g>
<g>
</g>
<g>
</g>
<g>
</g>
<g>
</g>
<g>
</g>
<g>
</g>
<g>
</g>
<g>
</g>
<g>
</g>
<g>
</g>
</svg>
