<?xml version="1.0" standalone="no"?>
<!DOCTYPE svg PUBLIC "-//W3C//DTD SVG 20010904//EN"
 "http://www.w3.org/TR/2001/REC-SVG-20010904/DTD/svg10.dtd">
<svg version="1.0" xmlns="http://www.w3.org/2000/svg"
 width="300.000000pt" height="300.000000pt" viewBox="0 0 300.000000 300.000000"
 preserveAspectRatio="xMidYMid meet">
<metadata>
Created by potrace 1.10, written by Peter Selinger 2001-2011
</metadata>
<g transform="translate(0.000000,300.000000) scale(0.100000,-0.100000)"
fill="#000000" stroke="none">
<path d="M1300 2984 c-384 -68 -658 -211 -897 -468 -178 -191 -309 -443 -368
-707 -22 -98 -32 -409 -16 -521 111 -780 815 -1342 1602 -1278 296 24 538 117
784 301 301 224 510 572 571 948 18 110 18 372 0 482 -98 605 -556 1085 -1167
1224 -53 13 -131 18 -279 20 -113 2 -216 1 -230 -1z m498 -33 c135 -29 240
-66 366 -130 286 -145 515 -374 655 -656 116 -231 154 -395 155 -660 1 -259
-37 -431 -143 -650 -156 -321 -412 -566 -748 -718 -276 -124 -636 -154 -935
-77 -269 69 -499 200 -693 396 -213 214 -341 452 -407 754 -32 149 -32 428 0
576 134 625 607 1077 1231 1179 122 20 396 13 519 -14z"/>
<path d="M755 2491 c-80 -37 -135 -120 -135 -203 0 -77 18 -119 75 -174 42
-42 63 -54 105 -63 149 -32 290 78 290 226 0 91 -63 184 -147 220 -46 19 -140
16 -188 -6z m218 -37 c41 -29 78 -83 92 -134 4 -17 3 -21 -3 -12 -6 10 -11 -2
-16 -37 -4 -32 -19 -68 -42 -102 -37 -55 -38 -75 -3 -43 27 25 54 79 64 129 5
26 10 33 13 21 13 -57 -66 -187 -104 -172 -11 4 -24 -1 -36 -13 -16 -18 -29
-20 -92 -17 -66 3 -78 6 -116 37 -56 46 -72 78 -69 147 2 55 35 142 59 157 5
3 15 15 21 26 9 18 8 19 -8 11 -41 -22 -79 -86 -93 -155 -7 -37 -8 -39 -9 -11
-1 41 16 91 45 131 55 74 216 94 297 37z"/>
<path d="M2263 2481 c-48 -22 -71 -53 -84 -112 -27 -118 -133 -285 -251 -394
-93 -86 -181 -124 -341 -145 -88 -12 -169 -45 -205 -83 -12 -13 -58 -102 -102
-197 -96 -209 -148 -298 -212 -366 -62 -66 -116 -89 -282 -121 -154 -30 -207
-54 -268 -122 -136 -151 -86 -382 104 -483 35 -19 59 -23 128 -23 73 0 92 4
137 28 111 58 166 145 177 281 25 289 207 492 521 581 152 43 202 92 230 225
42 203 110 340 236 474 82 88 121 114 257 171 132 55 156 80 156 157 0 105
-105 173 -201 129z m124 -34 c17 -10 33 -23 36 -30 10 -28 -3 -86 -29 -130
-24 -39 -37 -50 -79 -63 -27 -9 -68 -26 -90 -37 -22 -12 -43 -20 -47 -19 -5 1
-8 -3 -8 -10 0 -8 -3 -9 -10 -2 -7 7 -1 31 19 75 16 35 32 80 36 99 4 19 21
59 37 88 29 51 32 53 67 50 20 -1 50 -11 68 -21z m-146 -11 c-12 -13 -31 -55
-43 -92 -26 -89 -80 -192 -129 -248 -54 -61 -49 -70 8 -16 30 29 23 18 -20
-29 -84 -92 -151 -192 -188 -279 -28 -69 -69 -212 -69 -244 0 -50 -78 -147
-118 -148 -26 -1 -238 -75 -256 -89 -8 -7 -21 -9 -27 -5 -8 5 -9 3 -4 -6 6
-10 4 -12 -8 -7 -10 4 -21 -3 -31 -19 -15 -22 -45 -36 -31 -14 3 5 1 10 -5 10
-6 0 -10 -6 -8 -12 1 -7 -32 -47 -73 -88 -100 -101 -179 -256 -179 -352 0 -15
-5 -28 -10 -28 -14 0 -3 71 25 152 29 86 102 194 173 258 66 58 61 67 -7 13
-135 -108 -204 -241 -217 -422 -6 -84 -33 -152 -88 -224 -38 -50 -21 -50 25 0
38 40 61 89 75 158 11 57 12 58 13 19 2 -93 -74 -217 -141 -228 -7 -1 -22 -7
-33 -13 -77 -42 -220 -29 -286 25 -64 52 -128 150 -113 174 3 5 8 34 10 64 5
69 49 157 106 214 51 50 57 53 173 74 50 9 120 26 157 38 141 44 233 165 378
496 66 149 111 209 147 195 10 -4 14 -2 10 4 -8 12 46 29 123 38 46 6 81 14
205 49 6 2 17 6 25 9 8 3 25 8 38 10 19 5 22 2 16 -11 -38 -92 -68 -181 -83
-253 -20 -90 -37 -133 -78 -188 -23 -29 -23 -32 -5 -22 32 17 71 69 81 109 6
20 19 77 31 127 23 103 92 251 144 312 54 62 43 62 -25 -1 -33 -31 -65 -56
-72 -56 -6 0 5 11 26 25 51 35 181 186 227 265 22 36 51 103 66 150 26 81 55
130 77 130 6 0 0 -11 -12 -24z m192 -154 c-11 -14 -26 -28 -34 -30 -8 -3 -5 5
8 20 13 13 26 39 30 58 l8 35 3 -29 c2 -17 -4 -39 -15 -54z m-1833 -1300 c-88
-61 -130 -133 -132 -226 -1 -47 -3 -54 -11 -35 -28 77 56 239 143 272 26 9 26
7 0 -11z"/>
<path d="M2004 2018 l-19 -23 23 19 c21 18 27 26 19 26 -2 0 -12 -10 -23 -22z"/>
<path d="M1401 1723 c-18 -21 -60 -102 -95 -180 -91 -204 -151 -306 -224 -380
-67 -69 -46 -68 26 1 67 63 165 228 221 373 28 71 80 174 99 196 8 9 13 20 10
23 -3 3 -20 -12 -37 -33z"/>
<path d="M1885 1300 c-10 -17 30 -91 104 -190 83 -111 145 -231 162 -315 23
-113 84 -181 177 -199 106 -19 231 83 232 189 0 77 -48 158 -114 192 -17 9
-125 78 -241 153 -272 178 -304 195 -320 170z m155 -90 c66 -45 107 -72 129
-85 9 -5 36 -24 61 -41 25 -17 86 -55 135 -84 82 -48 153 -108 156 -131 1 -5
2 -13 3 -18 0 -5 4 -13 9 -17 4 -4 7 -12 7 -18 0 -6 -5 -4 -10 4 -8 12 -10 9
-10 -13 0 -36 -40 -114 -79 -156 -30 -32 -34 -33 -90 -29 -70 5 -120 35 -151
90 -12 21 -18 38 -14 38 3 0 1 6 -6 14 -6 8 -10 23 -9 33 4 23 -16 83 -49 148
-23 47 -56 97 -159 241 -23 34 -43 69 -43 78 0 15 2 15 33 0 17 -9 57 -33 87
-54z m501 -473 c-11 -32 -69 -102 -78 -93 -2 2 9 18 26 36 16 18 35 53 42 79
7 28 14 39 16 28 3 -9 0 -32 -6 -50z"/>
</g>
</svg>
