<?xml version="1.0" standalone="no"?>
<!DOCTYPE svg PUBLIC "-//W3C//DTD SVG 20010904//EN"
 "http://www.w3.org/TR/2001/REC-SVG-20010904/DTD/svg10.dtd">
<svg version="1.0" xmlns="http://www.w3.org/2000/svg"
 width="900.000000pt" height="900.000000pt" viewBox="0 0 900.000000 900.000000"
 preserveAspectRatio="xMidYMid meet">
<metadata>
Created by potrace 1.10, written by Peter Selinger 2001-2011
</metadata>
<g transform="translate(0.000000,900.000000) scale(0.100000,-0.100000)"
fill="#ffffff" stroke="none">
<path d="M4140 8961 c-180 -8 -344 -27 -414 -47 -26 -8 -66 -14 -88 -14 -22 0
-61 -7 -87 -15 -25 -8 -82 -22 -126 -31 -44 -9 -89 -20 -100 -25 -11 -5 -38
-13 -60 -18 -22 -5 -53 -14 -70 -19 -16 -6 -55 -18 -85 -27 -30 -9 -64 -20
-75 -25 -103 -40 -132 -50 -145 -50 -8 0 -24 -7 -34 -15 -11 -8 -25 -15 -32
-15 -11 0 -40 -12 -184 -77 -31 -14 -60 -29 -110 -54 -8 -5 -53 -27 -100 -49
-102 -50 -183 -93 -190 -101 -3 -3 -34 -23 -70 -44 -66 -39 -201 -126 -210
-135 -3 -3 -34 -25 -70 -49 -36 -25 -78 -55 -95 -68 -16 -13 -35 -27 -40 -31
-17 -12 -109 -86 -135 -108 -263 -225 -454 -421 -645 -659 -22 -28 -44 -55
-50 -62 -5 -7 -15 -19 -22 -26 -18 -22 -177 -253 -198 -289 -5 -9 -42 -70 -81
-135 -97 -160 -209 -384 -295 -593 -6 -14 -17 -38 -25 -53 -8 -16 -14 -36 -14
-45 -1 -9 -9 -35 -20 -57 -11 -22 -19 -47 -20 -56 0 -9 -3 -19 -6 -22 -10 -10
-43 -110 -44 -130 0 -11 -6 -33 -14 -50 -8 -18 -19 -52 -26 -77 -30 -118 -42
-169 -49 -210 -4 -25 -12 -61 -19 -80 -11 -35 -25 -122 -43 -255 -5 -38 -13
-104 -18 -145 -16 -115 -21 -539 -11 -795 9 -246 23 -387 46 -476 8 -30 14
-74 14 -98 0 -23 5 -52 12 -64 6 -12 15 -42 19 -67 12 -66 56 -242 70 -275 5
-11 13 -38 18 -60 10 -44 29 -101 42 -127 5 -10 9 -23 9 -30 1 -7 9 -31 20
-53 11 -22 20 -49 20 -60 0 -11 7 -29 15 -39 8 -11 15 -25 15 -32 0 -7 14 -43
31 -81 17 -37 36 -81 44 -98 92 -206 332 -632 385 -685 12 -12 50 -70 50 -76
0 -3 12 -21 28 -39 15 -17 34 -42 42 -55 14 -21 26 -37 119 -149 206 -252 481
-519 736 -714 5 -4 21 -17 35 -28 14 -12 43 -33 65 -47 22 -14 65 -44 95 -67
30 -23 62 -45 70 -49 20 -9 43 -23 115 -70 33 -22 78 -49 100 -61 22 -12 56
-31 75 -43 75 -44 365 -184 460 -222 30 -12 67 -28 82 -36 14 -8 35 -14 45
-14 10 0 27 -6 38 -14 11 -7 36 -17 55 -21 19 -4 40 -10 45 -13 20 -13 111
-41 130 -42 11 0 29 -6 40 -14 11 -7 40 -17 65 -21 25 -4 50 -10 55 -14 13 -8
108 -30 170 -39 28 -5 60 -13 72 -20 12 -7 39 -12 60 -12 21 0 56 -5 78 -11
253 -67 1066 -81 1435 -25 58 9 139 21 180 27 41 6 89 18 107 25 17 8 42 14
55 14 14 0 58 9 99 20 41 11 94 25 119 31 25 7 59 18 77 25 17 8 40 14 51 14
11 0 33 7 48 15 16 8 37 15 46 15 9 0 19 4 22 9 3 5 22 12 43 16 20 4 46 13
57 21 11 8 30 14 41 14 11 0 29 7 39 15 11 8 28 15 37 15 9 0 39 11 66 24 78
40 141 66 157 66 8 0 17 4 21 9 3 5 54 33 113 63 59 29 109 56 112 59 3 3 19
12 35 21 69 35 124 66 183 106 35 23 65 42 67 42 5 0 158 105 211 144 23 17
52 38 64 46 12 8 28 20 34 25 6 6 57 47 112 92 55 44 122 101 149 125 66 60
300 294 355 356 47 52 55 62 148 177 31 39 61 75 67 82 21 25 32 39 79 108 94
134 136 196 136 201 0 2 20 33 45 70 25 36 45 69 45 74 0 5 6 15 13 22 18 20
155 286 212 413 63 140 75 168 75 179 0 7 7 21 15 32 8 10 15 28 15 39 0 11 6
31 13 45 7 14 21 50 31 80 10 30 23 66 29 80 5 14 13 41 17 60 5 19 13 49 19
65 6 17 18 57 26 90 9 33 22 81 30 106 8 26 15 62 15 80 0 19 7 47 15 63 8 15
15 45 15 65 1 20 5 56 11 81 6 25 16 95 24 157 7 62 16 120 18 130 3 10 8 146
11 303 9 420 -13 815 -53 965 -6 22 -11 59 -11 83 0 24 -5 52 -11 63 -6 11
-14 41 -19 67 -12 66 -57 244 -78 307 -5 17 -18 57 -28 90 -10 33 -22 64 -26
69 -4 6 -8 17 -8 25 0 9 -7 29 -15 44 -8 15 -19 42 -24 60 -20 67 -43 122
-106 262 -65 145 -160 325 -244 463 -87 144 -70 118 -225 342 -17 25 -33 47
-36 50 -3 3 -30 36 -60 75 -58 75 -62 79 -167 200 -94 108 -280 294 -383 384
-128 111 -130 113 -204 169 -37 29 -75 60 -84 68 -8 9 -34 27 -56 41 -23 15
-66 45 -96 68 -30 23 -62 45 -70 48 -8 4 -27 15 -42 25 -30 19 -232 141 -263
158 -24 14 -278 140 -320 159 -28 13 -93 41 -155 66 -14 6 -38 17 -53 25 -16
8 -36 14 -45 14 -9 1 -35 9 -57 20 -22 11 -47 19 -56 20 -9 0 -19 3 -22 6 -10
10 -110 43 -130 44 -11 0 -33 6 -50 14 -18 8 -50 18 -72 24 -22 6 -74 19 -115
30 -41 11 -96 23 -122 26 -26 4 -50 11 -53 17 -4 5 -25 9 -48 9 -23 1 -62 5
-87 11 -25 6 -93 16 -152 24 -59 7 -115 16 -125 19 -30 8 -687 14 -853 7z
m795 -56 c33 -8 87 -15 120 -15 33 0 82 -7 109 -15 27 -8 66 -15 87 -15 21 0
50 -5 66 -11 15 -6 60 -16 98 -24 39 -7 99 -20 135 -29 36 -9 83 -21 105 -25
22 -5 74 -21 115 -35 41 -14 98 -33 125 -42 58 -18 91 -30 200 -74 44 -18 98
-39 120 -48 40 -15 403 -193 440 -215 10 -7 37 -23 60 -37 22 -13 56 -33 75
-43 32 -18 123 -78 293 -195 66 -46 68 -47 255 -202 474 -392 866 -897 1146
-1475 62 -128 74 -154 134 -305 54 -135 140 -403 167 -525 9 -38 22 -95 30
-125 31 -125 65 -332 91 -565 13 -120 15 -211 11 -455 -2 -168 -10 -348 -16
-400 -25 -201 -66 -427 -106 -590 -9 -36 -18 -76 -21 -90 -11 -49 -126 -406
-144 -445 -10 -22 -30 -71 -45 -110 -56 -145 -196 -426 -272 -547 -12 -21 -23
-40 -23 -42 0 -3 -13 -24 -29 -48 -15 -24 -49 -76 -76 -117 -47 -73 -209 -290
-307 -411 -71 -88 -433 -448 -538 -535 -170 -142 -539 -405 -566 -405 -4 0
-22 -11 -40 -25 -18 -14 -43 -30 -56 -35 -13 -6 -50 -26 -83 -45 -76 -43 -262
-135 -274 -135 -5 0 -14 -7 -21 -15 -7 -8 -23 -15 -35 -15 -12 0 -28 -7 -35
-15 -7 -8 -18 -15 -26 -15 -14 0 -66 -20 -117 -46 -16 -8 -37 -14 -47 -14 -9
0 -23 -7 -30 -15 -7 -8 -25 -15 -39 -15 -15 0 -36 -7 -47 -15 -10 -8 -28 -15
-39 -15 -11 0 -33 -7 -49 -15 -15 -8 -38 -15 -50 -15 -12 0 -30 -6 -41 -14
-11 -7 -41 -16 -67 -20 -26 -4 -50 -11 -53 -15 -2 -5 -29 -12 -60 -16 -30 -3
-57 -11 -60 -16 -4 -5 -19 -9 -34 -9 -16 0 -51 -6 -77 -14 -127 -37 -404 -72
-744 -95 -152 -10 -582 9 -645 28 -16 5 -70 13 -120 17 -49 4 -104 13 -122 20
-18 8 -50 14 -71 14 -22 0 -59 7 -82 15 -23 8 -55 15 -70 15 -15 0 -44 7 -63
15 -20 8 -49 15 -65 15 -15 0 -33 5 -38 10 -6 6 -33 15 -60 19 -27 5 -74 19
-104 30 -30 12 -71 26 -90 31 -48 12 -121 38 -142 50 -10 6 -24 10 -32 10 -8
0 -27 6 -43 14 -36 17 -84 38 -153 66 -85 34 -381 184 -489 247 -199 117 -452
296 -631 447 -292 247 -592 577 -786 866 -17 25 -52 75 -77 113 -26 37 -47 70
-47 74 0 3 -17 33 -38 67 -82 130 -186 334 -269 526 -66 152 -146 375 -173
480 -5 19 -25 96 -45 170 -51 195 -87 398 -120 680 -14 118 -16 204 -12 465 2
176 10 358 16 405 60 428 111 651 223 985 27 81 45 130 110 290 35 86 196 406
256 506 98 165 336 510 372 539 3 3 39 46 80 95 109 132 386 406 530 523 180
147 188 153 265 207 39 27 97 68 130 91 154 107 532 310 715 384 30 12 69 28
85 35 87 35 237 90 290 105 82 24 133 40 160 49 28 9 92 26 215 56 104 25 205
45 229 45 13 0 53 6 90 14 85 19 236 37 381 46 180 12 654 2 725 -15z"/>
<path d="M2430 7521 c-30 -4 -66 -12 -80 -18 -14 -6 -50 -21 -80 -33 -81 -33
-178 -101 -243 -170 -31 -33 -57 -64 -57 -69 0 -5 -7 -11 -15 -15 -8 -3 -15
-13 -15 -22 0 -10 -6 -25 -13 -33 -14 -17 -35 -67 -61 -146 -21 -65 -22 -282
-1 -340 8 -22 15 -47 15 -55 0 -8 21 -57 47 -110 76 -154 221 -284 386 -346
133 -50 341 -53 462 -7 60 22 173 82 203 106 60 49 162 153 162 165 0 7 7 15
15 18 8 4 15 14 15 24 0 10 6 23 14 29 8 7 18 26 21 42 4 16 11 31 16 34 5 4
9 21 9 39 0 17 6 38 12 44 8 8 14 53 16 122 4 90 0 126 -18 197 -12 47 -26 94
-30 102 -4 9 -18 38 -31 64 -36 74 -42 82 -94 142 -44 52 -140 133 -175 148
-8 4 -22 11 -30 16 -45 25 -80 41 -93 41 -7 0 -27 7 -44 15 -35 17 -229 27
-313 16z m233 -103 c9 -5 21 -7 25 -4 9 6 80 -17 123 -39 90 -47 181 -127 233
-206 17 -24 38 -53 47 -64 18 -22 31 -62 35 -110 7 -79 2 -170 -11 -208 -8
-23 -15 -48 -15 -56 0 -7 -18 -54 -41 -105 -92 -204 -162 -289 -295 -357 -75
-39 -85 -41 -190 -46 -91 -5 -118 -3 -144 11 -18 9 -45 16 -60 16 -15 0 -33 7
-40 15 -7 8 -19 15 -27 15 -37 0 -143 85 -239 192 -55 61 -98 191 -90 272 13
131 45 232 114 369 64 124 130 205 197 239 22 11 49 28 60 38 44 39 260 58
318 28z m-529 -110 c-10 -13 -36 -41 -56 -63 -45 -48 -124 -197 -134 -252 -3
-21 -10 -42 -14 -48 -4 -5 -11 -34 -15 -62 -10 -75 -22 -74 -30 3 -8 67 7 139
41 206 8 14 14 33 14 42 0 9 7 19 15 22 8 4 15 13 15 20 0 24 137 154 161 154
22 0 22 0 3 -22z m1087 -558 c2 -89 -21 -166 -84 -272 -38 -64 -115 -140 -156
-153 -33 -10 -25 8 34 71 58 62 155 242 155 286 0 29 35 147 42 140 4 -4 8
-36 9 -72z"/>
<path d="M6895 7470 c-11 -5 -31 -9 -44 -9 -38 -1 -147 -60 -195 -105 -48 -46
-96 -117 -96 -143 0 -10 -7 -27 -15 -37 -9 -12 -15 -42 -15 -72 0 -37 -4 -54
-15 -58 -9 -3 -15 -18 -15 -39 0 -19 -7 -40 -15 -47 -8 -7 -15 -22 -15 -34 -1
-11 -7 -32 -15 -46 -8 -14 -14 -37 -15 -51 0 -15 -7 -29 -15 -33 -8 -3 -15
-16 -15 -30 0 -14 -4 -27 -9 -30 -5 -3 -28 -43 -50 -88 -23 -46 -51 -96 -61
-113 -11 -16 -23 -36 -27 -44 -16 -34 -175 -246 -196 -262 -4 -3 -18 -20 -31
-37 -89 -121 -277 -309 -398 -398 -114 -84 -113 -83 -218 -134 -47 -23 -93
-45 -102 -51 -10 -5 -25 -9 -34 -9 -8 0 -25 -6 -37 -12 -23 -13 -57 -23 -197
-56 -145 -35 -234 -52 -265 -52 -46 0 -286 -37 -325 -51 -115 -39 -253 -127
-327 -208 -45 -50 -123 -166 -123 -184 0 -8 -7 -20 -15 -27 -8 -7 -15 -23 -15
-35 0 -12 -7 -28 -15 -35 -8 -7 -15 -19 -15 -27 0 -8 -6 -27 -13 -41 -8 -15
-21 -43 -29 -62 -27 -64 -50 -115 -59 -130 -5 -8 -12 -22 -15 -30 -9 -24 -35
-83 -50 -113 -8 -16 -14 -37 -14 -48 0 -11 -7 -22 -15 -25 -8 -4 -15 -12 -15
-20 0 -8 -13 -40 -30 -71 -16 -31 -30 -64 -30 -73 0 -10 -7 -20 -15 -24 -8 -3
-15 -13 -15 -23 -1 -10 -12 -36 -25 -58 -14 -22 -27 -47 -31 -55 -3 -8 -10
-22 -15 -30 -5 -8 -12 -22 -15 -30 -3 -8 -10 -22 -15 -30 -5 -8 -14 -26 -20
-40 -5 -13 -13 -27 -17 -30 -4 -3 -17 -25 -30 -50 -67 -132 -215 -332 -318
-431 -157 -150 -340 -233 -649 -294 -16 -3 -66 -12 -110 -21 -44 -8 -102 -20
-130 -25 -27 -6 -88 -17 -135 -24 -129 -22 -183 -34 -194 -45 -6 -6 -17 -10
-26 -10 -22 0 -169 -75 -195 -100 -12 -11 -26 -20 -32 -20 -11 0 -162 -144
-203 -195 -63 -76 -149 -266 -150 -330 0 -16 -7 -48 -15 -70 -24 -68 -19 -189
15 -360 30 -149 137 -341 252 -450 65 -62 132 -117 158 -128 8 -4 29 -16 45
-27 17 -11 37 -22 45 -26 8 -3 23 -10 32 -15 22 -11 118 -42 183 -59 72 -18
250 -24 315 -11 30 7 75 16 100 21 80 16 260 96 312 139 7 6 40 33 74 60 84
69 163 162 193 229 6 12 15 22 21 22 5 0 10 7 10 16 0 9 6 28 13 42 8 15 21
42 30 60 9 19 17 46 17 60 1 15 7 38 15 52 10 17 14 57 15 120 0 52 7 130 15
173 8 43 15 98 15 122 0 23 7 59 15 78 8 20 15 51 15 70 0 18 7 42 15 53 8 10
15 35 15 55 0 20 7 42 15 49 8 7 15 21 15 32 0 11 6 32 13 46 8 15 21 43 29
62 30 69 62 135 67 140 3 3 17 27 31 53 46 88 51 97 61 97 5 0 9 5 9 11 0 22
99 139 219 259 105 104 248 219 343 275 188 111 477 236 608 264 19 4 51 13
70 19 19 6 58 16 85 22 28 6 66 15 85 19 19 4 57 20 84 35 27 14 53 26 57 26
33 0 249 190 249 219 0 5 6 14 13 18 8 4 17 15 20 23 4 8 18 35 32 59 14 24
25 52 25 61 0 9 7 25 15 36 8 11 15 41 15 70 0 28 7 73 15 100 8 27 15 65 15
84 0 19 7 44 15 54 8 11 15 36 15 55 1 20 7 47 15 61 8 14 14 39 15 56 0 17 7
37 15 44 8 7 15 27 15 44 0 18 7 41 15 52 8 10 15 28 15 40 0 11 7 29 15 40 8
10 15 31 15 45 0 15 7 32 15 39 8 7 15 20 15 30 0 10 7 23 15 30 8 7 15 20 15
29 0 10 7 26 15 37 8 10 15 26 15 35 0 9 7 22 15 29 8 7 15 18 15 26 0 7 13
32 28 56 16 24 38 59 48 78 10 19 38 61 62 92 23 31 42 60 42 65 0 5 14 23 30
41 17 19 45 53 64 78 74 97 282 317 372 394 92 78 266 174 454 250 136 55 208
83 245 97 89 32 152 70 205 123 57 56 100 128 100 168 0 12 5 42 12 66 26 96
-33 264 -123 354 -96 96 -281 158 -364 122z m150 -110 c11 -4 34 -13 51 -19
50 -19 131 -101 149 -150 20 -57 19 -95 -4 -162 -25 -70 -72 -162 -88 -172 -7
-4 -13 -14 -13 -22 0 -19 -96 -103 -139 -121 -20 -9 -63 -24 -96 -35 -33 -10
-69 -23 -80 -28 -134 -62 -176 -81 -183 -81 -4 0 -25 -9 -47 -20 -42 -21 -70
-25 -79 -11 -10 15 10 99 28 116 9 9 16 26 16 38 0 12 10 38 22 57 22 35 46
107 74 228 8 34 21 80 29 102 8 22 22 59 30 82 24 61 85 149 118 167 16 9 38
23 49 32 22 16 123 16 163 -1z m-325 -30 c0 -11 -34 -62 -57 -87 -18 -20 -73
-172 -73 -202 0 -32 -57 -202 -98 -291 -87 -190 -126 -257 -221 -383 -55 -73
-77 -98 -193 -221 -37 -39 -68 -74 -68 -78 0 -5 -5 -8 -10 -8 -13 0 0 27 30
58 33 35 195 255 203 275 3 9 10 17 16 17 5 0 11 8 15 18 3 9 15 31 26 47 11
17 24 39 30 50 5 11 14 27 19 35 5 8 12 22 15 30 4 8 17 33 31 55 13 22 24 46
25 53 0 7 7 20 15 28 8 9 15 24 15 35 0 11 7 27 15 35 8 9 15 25 15 37 0 12 7
31 15 41 8 11 15 27 15 37 0 9 7 30 15 45 8 16 15 44 15 62 0 21 5 32 14 32
19 0 28 27 20 66 -4 22 -1 40 10 56 9 12 16 32 16 44 0 12 7 24 15 28 8 3 15
11 16 18 0 14 75 78 90 78 5 0 9 -5 9 -10z m620 -374 c0 -44 -5 -67 -15 -76
-8 -7 -15 -18 -15 -24 0 -17 -71 -83 -97 -91 -31 -9 -29 -1 14 58 38 51 83
148 83 178 0 9 3 19 6 22 16 15 24 -9 24 -67z m-1327 -963 c-8 -19 -8 -20 -53
-73 -16 -19 -30 -39 -30 -43 0 -5 -20 -35 -45 -67 -25 -32 -45 -61 -45 -64 0
-3 -13 -25 -29 -48 -67 -100 -91 -140 -91 -152 0 -8 -7 -19 -15 -26 -8 -7 -15
-21 -15 -30 0 -10 -4 -20 -8 -22 -11 -4 -52 -85 -52 -102 0 -7 -7 -19 -15 -26
-8 -7 -15 -21 -15 -30 0 -10 -6 -31 -14 -47 -29 -55 -46 -101 -46 -121 0 -11
-7 -25 -15 -32 -8 -7 -15 -27 -15 -44 0 -17 -7 -40 -15 -50 -8 -11 -15 -36
-15 -55 0 -20 -7 -45 -15 -55 -8 -11 -15 -36 -15 -55 0 -20 -7 -45 -15 -55 -9
-11 -15 -41 -15 -68 0 -34 -5 -50 -15 -54 -12 -5 -15 -25 -15 -89 0 -61 -4
-86 -15 -95 -8 -7 -15 -20 -15 -30 0 -9 -11 -37 -25 -61 -14 -24 -28 -51 -32
-59 -19 -42 -166 -171 -179 -157 -3 3 19 33 49 68 110 132 179 285 191 424 3
33 12 88 21 123 33 137 44 179 55 217 19 64 40 128 49 150 5 11 17 43 26 70
58 165 179 391 287 535 46 61 206 240 214 240 2 0 0 -8 -3 -17z m-453 -425 c0
-12 -9 -40 -19 -62 -11 -23 -29 -63 -40 -91 -12 -27 -28 -63 -36 -78 -8 -16
-15 -35 -15 -43 0 -7 -11 -37 -23 -67 -13 -29 -30 -77 -37 -107 -7 -30 -20
-82 -30 -115 -15 -53 -29 -108 -60 -250 -5 -22 -12 -62 -15 -90 -7 -58 -15
-83 -62 -183 -45 -100 -131 -227 -190 -283 -54 -52 -151 -100 -233 -116 -14
-2 -34 -8 -45 -13 -11 -4 -49 -16 -85 -25 -36 -9 -87 -26 -114 -36 -27 -10
-55 -19 -63 -19 -16 0 -164 -60 -178 -72 -5 -4 -16 -8 -25 -8 -15 0 -144 -58
-180 -80 -8 -6 -46 -26 -83 -45 -38 -20 -87 -49 -109 -66 -23 -16 -48 -29 -56
-29 -8 0 -35 -17 -61 -38 -25 -22 -54 -43 -63 -48 -39 -21 -232 -199 -295
-273 -107 -125 -187 -242 -217 -321 -3 -8 -10 -22 -15 -30 -20 -32 -61 -125
-61 -138 0 -7 -13 -53 -30 -101 -38 -113 -58 -238 -69 -426 -10 -156 -26 -232
-76 -355 -58 -141 -104 -221 -181 -315 -103 -127 -177 -181 -314 -229 -113
-39 -313 -44 -425 -11 -33 9 -78 23 -100 29 -84 25 -207 107 -302 204 -81 81
-99 107 -149 207 l-56 114 -4 133 c-2 73 1 147 6 163 5 17 18 59 29 95 11 36
27 85 36 110 17 45 93 191 105 200 3 3 16 25 28 50 25 53 135 169 213 227 57
41 193 93 247 93 17 0 43 5 59 11 15 6 66 18 113 26 169 28 185 32 218 43 18
7 39 10 47 6 8 -3 17 -1 20 4 4 6 19 10 34 10 27 0 73 12 116 30 19 8 48 15
110 27 17 3 35 9 40 13 6 5 53 24 105 44 52 20 102 41 110 46 8 6 25 14 38 20
12 5 22 14 22 20 0 5 6 10 14 10 17 0 206 147 206 160 0 5 9 12 20 15 11 4 27
18 34 33 8 15 28 41 44 57 31 32 114 150 125 178 3 9 11 17 17 17 5 0 10 5 10
10 0 6 21 48 47 93 26 45 61 109 79 142 17 33 39 74 47 90 9 17 29 59 44 95
15 36 37 81 50 100 13 19 23 42 23 50 0 9 6 24 13 35 7 11 31 61 52 110 20 50
44 99 51 110 8 11 14 31 14 46 0 14 9 34 20 44 11 10 20 26 20 36 0 10 4 20 9
24 5 3 13 19 16 37 4 17 23 61 41 97 19 36 34 70 34 75 0 5 26 48 57 95 63 95
194 231 224 231 10 0 33 6 51 14 66 28 365 76 471 76 20 0 45 4 55 9 9 5 37
15 62 21 25 7 61 17 80 22 19 6 48 16 63 24 16 8 42 14 58 14 16 0 29 4 29 8
0 12 46 32 73 32 13 0 32 7 44 15 19 13 77 31 111 34 6 1 12 -9 12 -21z
m-1310 -322 c0 -7 -12 -26 -27 -42 -66 -70 -96 -113 -128 -179 -54 -112 -105
-225 -105 -231 0 -3 -10 -26 -21 -52 -12 -26 -30 -65 -39 -87 -27 -61 -58
-131 -107 -235 -24 -52 -53 -115 -64 -140 -11 -25 -25 -54 -31 -65 -6 -11 -36
-69 -67 -130 -92 -180 -178 -322 -264 -435 -94 -123 -247 -269 -247 -235 0 5
33 46 61 76 9 9 40 48 69 85 29 38 56 71 61 72 5 2 9 10 9 17 0 7 3 15 8 17
11 5 52 66 52 78 0 5 3 10 8 10 7 0 21 22 66 100 11 19 30 53 43 75 12 22 27
50 32 62 5 11 15 24 20 28 6 3 11 14 11 24 0 10 7 24 15 31 8 7 15 20 15 30 0
10 7 23 15 30 8 7 15 19 15 27 0 8 7 21 15 29 8 9 15 24 15 33 0 10 7 24 15
31 8 7 15 18 15 24 0 10 50 119 71 156 5 8 12 22 15 30 10 26 36 84 51 112 7
14 13 33 13 41 0 8 7 20 15 27 8 7 15 23 15 35 0 12 7 28 15 35 8 7 15 22 15
34 0 11 7 30 15 40 8 11 15 26 15 34 0 7 7 20 15 28 8 9 15 26 15 39 0 12 7
25 15 29 8 3 15 13 15 23 0 20 38 100 51 109 5 3 9 11 9 19 0 31 124 153 178
174 1 1 2 -5 2 -13z m-420 -1659 c0 -2 -42 -46 -92 -99 -51 -52 -104 -108
-119 -124 -32 -37 -149 -191 -149 -197 0 -3 -16 -29 -36 -58 -20 -30 -43 -67
-50 -84 -8 -16 -18 -37 -23 -45 -5 -8 -12 -22 -15 -30 -3 -8 -10 -22 -15 -30
-26 -47 -41 -80 -41 -95 0 -9 -7 -23 -15 -31 -8 -9 -15 -27 -15 -42 0 -15 -7
-36 -15 -46 -8 -11 -15 -31 -15 -45 -1 -14 -7 -37 -15 -51 -8 -14 -15 -41 -15
-60 0 -19 -7 -46 -15 -60 -8 -15 -14 -54 -15 -95 0 -86 -7 -101 -39 -79 -16
12 -21 22 -17 38 3 11 11 53 16 91 19 127 63 294 105 390 130 300 285 512 520
712 42 36 75 53 75 40z m-2146 -719 c-10 -12 -41 -44 -67 -72 -50 -54 -108
-145 -150 -236 -34 -73 -67 -175 -67 -203 0 -37 -30 -127 -41 -127 -19 0 5
233 27 265 8 11 14 30 14 43 0 13 7 30 15 38 8 9 15 24 15 33 0 10 7 24 15 31
8 7 15 17 15 22 0 27 126 167 190 210 38 25 58 23 34 -4z m1449 -705 c10 -103
8 -138 -8 -169 -8 -16 -15 -39 -15 -50 0 -12 -7 -35 -15 -50 -8 -16 -15 -36
-15 -45 0 -9 -7 -22 -15 -29 -8 -7 -15 -19 -15 -27 0 -8 -13 -32 -30 -53 -16
-21 -30 -41 -30 -44 0 -7 -101 -108 -145 -144 -15 -13 -34 -22 -43 -20 -10 2
6 25 49 72 76 81 109 128 154 216 28 57 44 101 85 235 5 17 12 63 16 103 4 39
10 72 14 72 4 0 10 -30 13 -67z"/>
<path d="M5655 3893 c-16 -24 -16 -32 -5 -77 19 -76 108 -230 181 -315 7 -7
27 -35 45 -62 18 -27 40 -57 50 -66 9 -10 30 -39 46 -65 16 -26 34 -48 39 -48
5 0 9 -5 9 -11 0 -6 19 -36 43 -67 24 -31 47 -64 50 -72 4 -8 15 -27 25 -42
101 -155 207 -360 251 -488 32 -92 81 -290 81 -327 0 -24 14 -60 64 -163 46
-97 150 -197 258 -249 114 -56 243 -78 343 -61 162 27 260 77 377 192 21 21
38 42 38 48 0 5 5 10 10 10 6 0 15 10 20 23 6 12 14 29 18 37 29 51 42 84 42
105 0 12 7 36 15 51 17 34 20 159 4 219 -6 22 -14 56 -18 75 -36 152 -170 309
-336 391 -16 8 -61 34 -100 58 -38 23 -79 47 -90 54 -11 7 -36 24 -55 38 -19
14 -42 29 -50 33 -31 14 -94 56 -578 378 -156 103 -285 188 -287 188 -2 0 -32
19 -67 43 -35 24 -70 46 -78 50 -16 8 -29 16 -95 57 -22 14 -58 34 -80 44 -22
10 -53 25 -68 32 -46 22 -82 18 -102 -13z m242 -173 c14 -11 34 -20 43 -20 10
0 20 -6 23 -14 3 -7 25 -23 49 -36 23 -12 61 -35 83 -51 22 -17 85 -58 140
-93 55 -35 112 -73 127 -85 14 -11 31 -21 36 -21 6 0 17 -6 24 -13 7 -7 60
-44 118 -82 58 -38 149 -98 203 -134 53 -36 105 -70 115 -76 10 -5 49 -31 87
-56 138 -90 168 -109 196 -121 16 -7 29 -16 29 -21 0 -4 19 -17 43 -28 42 -20
56 -27 112 -63 43 -28 115 -98 115 -113 0 -7 9 -17 19 -23 33 -17 83 -137 82
-195 -4 -207 -193 -545 -320 -571 -14 -3 -44 -10 -66 -17 -87 -26 -288 4 -330
49 -11 11 -31 25 -45 29 -26 8 -150 129 -150 146 0 6 -9 28 -20 50 -10 23 -22
62 -25 87 -8 61 -27 132 -36 132 -4 0 -10 -11 -13 -25 -9 -35 -26 -31 -26 5 0
17 4 30 9 30 25 0 20 55 -11 125 -4 11 -12 34 -17 50 -22 72 -56 156 -97 242
-24 51 -44 95 -44 98 0 3 -13 24 -30 47 -16 22 -30 45 -30 50 0 5 -8 21 -19
36 -26 39 -134 203 -146 223 -24 39 -52 77 -92 126 -24 28 -43 56 -43 61 0 6
-16 28 -36 49 -20 21 -45 54 -55 75 -10 20 -22 38 -26 40 -16 7 -51 65 -58 96
-6 31 -5 32 25 32 18 0 43 -9 57 -20z m1729 -1412 c-8 -103 -17 -147 -32 -159
-8 -6 -14 -19 -14 -29 0 -10 -7 -23 -15 -30 -8 -7 -15 -17 -15 -22 0 -14 -97
-106 -121 -113 -32 -10 -34 1 -4 32 30 33 115 157 115 169 0 5 6 21 14 36 8
15 17 42 21 60 10 52 37 118 47 118 6 0 8 -26 4 -62z"/>
</g>
</svg>
