<?xml version="1.0" standalone="no"?>
<!DOCTYPE svg PUBLIC "-//W3C//DTD SVG 20010904//EN"
 "http://www.w3.org/TR/2001/REC-SVG-20010904/DTD/svg10.dtd">
<svg version="1.0" xmlns="http://www.w3.org/2000/svg"
 width="512.000000pt" height="512.000000pt" viewBox="0 0 512.000000 512.000000"
 preserveAspectRatio="xMidYMid meet">
<metadata>
Created by potrace 1.10, written by Peter Selinger 2001-2011
</metadata>
<g transform="translate(0.000000,512.000000) scale(0.100000,-0.100000)"
fill="#ffffff" stroke="none">
<path d="M2248 5103 c7 -3 16 -2 19 1 4 3 -2 6 -13 5 -11 0 -14 -3 -6 -6z"/>
<path d="M1723 5043 c4 -3 10 -3 14 0 3 4 0 7 -7 7 -7 0 -10 -3 -7 -7z"/>
<path d="M3825 4450 c10 -11 20 -20 23 -20 3 0 -3 9 -13 20 -10 11 -20 20 -23
20 -3 0 3 -9 13 -20z"/>
<path d="M1191 4375 c-63 -18 -106 -42 -141 -81 l-25 -27 30 19 30 19 -28 -35
c-38 -48 -73 -117 -86 -170 -19 -72 -23 -78 -31 -50 -15 48 -11 -41 4 -98 29
-107 92 -183 196 -231 47 -22 68 -26 145 -26 77 1 98 5 145 28 31 14 71 43 90
63 31 33 32 35 6 16 -41 -32 -43 -21 -4 30 32 42 68 124 83 193 7 27 8 28 16
10 6 -14 8 -2 5 38 -16 209 -232 359 -435 302z"/>
<path d="M3413 4348 c-17 -6 -47 -24 -65 -40 -21 -19 -25 -25 -11 -18 12 5 23
10 26 10 2 0 -11 -30 -30 -66 -18 -37 -33 -76 -33 -88 -1 -36 -64 -191 -110
-265 -23 -40 -75 -109 -113 -154 l-71 -82 69 63 c100 91 122 97 40 11 l-70
-73 79 72 c93 86 161 126 339 198 72 30 141 63 152 74 16 17 17 20 3 15 -14
-5 -10 8 17 60 19 36 35 74 35 83 0 15 2 15 11 2 8 -11 9 -3 6 33 -12 123
-148 205 -274 165z"/>
<path d="M3049 3743 c-13 -16 -12 -17 4 -4 16 13 21 21 13 21 -2 0 -10 -8 -17
-17z"/>
<path d="M2989 3673 c-13 -16 -12 -17 4 -4 16 13 21 21 13 21 -2 0 -10 -8 -17
-17z"/>
<path d="M4340 3650 c0 -7 3 -10 7 -7 3 4 3 10 0 14 -4 3 -7 0 -7 -7z"/>
<path d="M2945 3585 c-63 -57 -82 -58 -30 -3 l40 42 -45 -40 c-149 -132 -288
-189 -564 -229 -125 -18 -195 -47 -246 -101 -31 -33 -32 -35 -6 -16 39 30 45
20 11 -20 -23 -27 -125 -226 -125 -243 0 -11 -126 -274 -168 -350 -84 -152
-163 -254 -223 -285 -22 -12 -21 -10 5 19 39 41 28 39 -25 -5 -87 -73 -166
-101 -413 -149 -203 -40 -260 -62 -333 -132 -26 -25 -33 -33 -14 -19 47 37 50
25 6 -26 -48 -56 -100 -167 -117 -248 l-13 -65 -6 50 c-5 42 -6 37 -7 -35 -4
-212 133 -390 343 -446 148 -40 330 9 425 113 22 24 25 29 8 14 -41 -36 -42
-21 -1 29 58 74 80 125 119 275 l8 30 6 -40 c7 -40 7 -40 9 13 0 33 -3 51 -9
47 -17 -10 -11 86 10 171 11 43 43 126 71 183 44 89 65 118 140 195 96 96 138
113 48 18 l-54 -57 60 56 c78 73 171 137 270 187 70 35 123 53 339 119 54 16
119 57 151 94 l20 23 -29 -22 c-40 -31 -44 -20 -7 25 42 53 81 143 91 211 30
213 128 439 263 605 26 31 46 57 45 57 -2 -1 -25 -21 -53 -45z"/>
<path d="M3004 3598 c-4 -7 -3 -8 4 -4 7 4 12 9 12 12 0 8 -9 4 -16 -8z"/>
<path d="M4410 3430 c0 -7 3 -10 7 -7 3 4 3 10 0 14 -4 3 -7 0 -7 -7z"/>
<path d="M70 3390 c0 -7 3 -10 7 -7 3 4 3 10 0 14 -4 3 -7 0 -7 -7z"/>
<path d="M4420 3390 c0 -7 3 -10 7 -7 3 4 3 10 0 14 -4 3 -7 0 -7 -7z"/>
<path d="M4483 2880 c0 -41 2 -58 4 -37 2 20 2 54 0 75 -2 20 -4 3 -4 -38z"/>
<path d="M13 2860 c0 -41 2 -58 4 -37 2 20 2 54 0 75 -2 20 -4 3 -4 -38z"/>
<path d="M2833 2565 c-10 -29 28 -104 111 -217 184 -253 249 -376 289 -545 37
-155 80 -214 190 -263 54 -24 146 -28 204 -9 42 13 111 58 134 85 10 13 5 12
-18 -5 -18 -12 -33 -20 -33 -16 0 3 15 28 34 54 18 27 42 78 52 113 l19 63 7
-40 c4 -27 6 -13 4 40 -2 67 -7 90 -31 134 -33 59 -61 83 -190 161 -49 29
-208 132 -353 227 -346 227 -403 257 -419 218z"/>
<path d="M70 2350 c0 -7 3 -10 7 -7 3 4 3 10 0 14 -4 3 -7 0 -7 -7z"/>
<path d="M4420 2350 c0 -7 3 -10 7 -7 3 4 3 10 0 14 -4 3 -7 0 -7 -7z"/>
<path d="M1592 1805 c0 -16 2 -22 5 -12 2 9 2 23 0 30 -3 6 -5 -1 -5 -18z"/>
</g>
</svg>
